<?xml version="1.0" encoding="utf-8"?>
<!-- Uploaded to: SVG Repo, www.svgrepo.com, Generator: SVG Repo Mixer Tools -->
<svg width="800px" height="800px" viewBox="0 0 64 64" xmlns="http://www.w3.org/2000/svg">
<path d="m16.51 49.27s-1.2-10.71.25-16.92 2.92-9.12 5.42-11a17.54 17.54 0 0 1 5.29-2.62s-1.62-5.33-2.37-5.54-3.54.66-4.71-.17-3-3-3.21-2.83-.46 1-.75 1.16a4.3 4.3 0 0 1 -2.58-.35c-.59-.38-1.17-.92-.29-1.54a7.2 7.2 0 0 1 4-.84c.75.21 3.62 3.05 4.08 3s3.92-1 5 .5 2.58 6 2.58 6a6.82 6.82 0 0 1 2.59-.17 13.71 13.71 0 0 1 2.66.38s.34-3.46-.95-4-2.75-.12-2.92-1.62-.75-3-1.17-3-.75.33-1.54.41a3.57 3.57 0 0 1 -2.5-1.12c-.13-.42.42-1.75 2.42-2s4.45 2 4.58 3.25 0 2 .12 2.08 3.71 1 4 3a25.15 25.15 0 0 1 0 3.5c.13 0 6.25.54 9.21 10a41.54 41.54 0 0 1 1.46 17.84 5.43 5.43 0 0 1 3.75 5c0 3.87-3.83 5.54-6.92 5s-6.16-1.21-8.46-.88-3.83 1.46-5.83 1.25-5.72-2.19-8.79-1.44-5.83 1.3-7-.75a4 4 0 0 1 2.58-5.58z" fill="#1d1d1b"/>
<path d="m16 51.1c.81-.63 2.88-.62 2.92-.91a50.07 50.07 0 0 1 -.71-13.71c.75-7.38 2.08-11.63 5.75-14.29s8-2.42 11.67-1.84 7.37 4.5 8.8 10.25.42 17.21.58 17.34 3.38.54 3.5 3.37-1.45 4.5-4.45 3.79a25.69 25.69 0 0 0 -8.42-.7c-3.75.16-4.42 1-6.54.79s-3.21-2-7.09-1.42-5.5 1.25-6 .63-1.37-2.25-.01-3.3z" fill="#c8db89"/>
<g fill="#1d1d1b">
<path d="m16.93 52.69a2.88 2.88 0 0 1 2.13-.75c.75.08 1.87.25 1.79.62s0 .54-.42.54-1.08-.54-1.83-.16-1.17.71-1.38.66a.75.75 0 0 1 -.29-.91z"/>
<path d="m27.85 52.1c.29.06 1 1 1.87 1s2.13-.29 2.21 0 .25.92 0 1a7.63 7.63 0 0 1 -2.87-.16c-.59-.29-1.71-.71-1.75-1s.33-.88.54-.84z"/>
<path d="m41.93 52.69a10.2 10.2 0 0 1 2.88.08c1.25.21 1.37.25 1.37.46s-.18.77-.33.77a17.81 17.81 0 0 0 -2.34-.42c-.75 0-.91.13-1.33 0s-.37-.81-.25-.89z"/>
<path d="m35.31 48.6c.31 0 2.2 2.63 1.95 2.75a3.84 3.84 0 0 1 -1 .17s-1.66-2.58-1.66-2.75.4-.12.71-.17z"/>
<path d="m37.43 48.44c-.08-.33.58 0 .83.12a10 10 0 0 1 1.3 2.79c-.17 0-.71.13-.88 0a27.42 27.42 0 0 1 -1.25-2.91z"/>
<path d="m39.68 48.31c-.13-.4.75-.25.83-.16a11.46 11.46 0 0 1 1.21 2.33.73.73 0 0 1 -.75.17 25.6 25.6 0 0 1 -1.29-2.34z"/>
<path d="m41.39 47.44s.37-.42.62-.25a11.79 11.79 0 0 1 2.09 2.58c-.09.25-.59.42-.59.42a23.31 23.31 0 0 1 -2.12-2.75z"/>
<path d="m42.35 45.44c-.15 0 .25-.75.46-.54a9.94 9.94 0 0 1 1.58 2c0 .3.08.71 0 .71s-1.88-2.13-2.04-2.17z"/>
<path d="m21.18 29.31c-.12-.12.21-1.12.88-2.79s1.08-2.25 1.41-2.37.79 0 .75.16-1.25 2.17-1.62 3a12.58 12.58 0 0 0 -.46 2c-.14.13-.88.09-.96 0z"/>
<path d="m26.13 31.77c1.3-1.67 3.25-1.92 6.7-2s6.47 1.67 6.92 6.54-2.88 7.59-8.31 7.13-6.84-4.38-7.17-6.21.73-4 1.86-5.46z"/>
</g>
<path d="m32.7 31.56a5 5 0 0 1 5.3 4.79c.18 3.8-3.3 5.75-6.83 5.38a5.55 5.55 0 0 1 -4.79-5.42c-.05-1.66 1.23-4.62 6.32-4.75z" fill="#cbe7f5"/>
<path d="m31.22 34.9a2.43 2.43 0 0 1 3.54 1.83c.25 2-2.79 3-4.12 1.62a2 2 0 0 1 .58-3.45z" fill="#1d1d1b"/>
</svg>